<?xml version="1.0" encoding="iso-8859-1"?>
<!-- Generator: Adobe Illustrator 19.0.0, SVG Export Plug-In . SVG Version: 6.00 Build 0)  -->
<svg xmlns="http://www.w3.org/2000/svg" xmlns:xlink="http://www.w3.org/1999/xlink" version="1.1" id="Capa_1" x="0px" y="0px" viewBox="0 0 497.328 497.328" style="enable-background:new 0 0 497.328 497.328;" xml:space="preserve" width="512px" height="512px">
<g>
	<g>
		<g>
			<polygon points="119.208,128.48 119.208,112.48 70.912,112.48 39.792,164.36 53.504,172.6 79.976,128.48    " fill="#006DF0"/>
			<polygon points="269.144,252.6 282.864,244.36 251.744,192.48 203.448,192.48 203.448,208.48 242.68,208.48    " fill="#006DF0"/>
			<path d="M317.856,240.48l-48-80h-80l-48-80H52.8l-52.8,88l48,80l-48,80l52.8,88h80l48,80h89.064l48-80h80l52.8-88l-52.8-88     H317.856z M189.864,176.48H260.8l43.2,72l-21.6,36l-21.6,36h-70.936l-21.6-36l-21.6-36l21.6-36L189.864,176.48z M18.656,168.48     l43.2-72h70.936l43.2,72l-21.6,36l-21.6,36H61.856L18.656,168.48z M132.792,400.48H61.856l-43.2-72l43.2-72h70.936l21.6,36     l21.6,36l-21.6,36L132.792,400.48z M260.8,480.48h-70.936l-43.2-72l21.6-36l21.6-36H260.8l21.6,36l21.6,36L260.8,480.48z      M388.8,400.48h-70.936l-21.6-36l-21.6-36l21.6-36l21.6-36H388.8l43.2,72L388.8,400.48z" fill="#006DF0"/>
			<polygon points="311.976,328.48 338.304,284.6 324.584,276.36 293.32,328.48 326.912,384.48 377.328,384.48 377.328,368.48      335.976,368.48    " fill="#006DF0"/>
			<polygon points="53.504,324.36 39.792,332.6 70.912,384.48 119.208,384.48 119.208,368.48 79.976,368.48    " fill="#006DF0"/>
			<rect x="233.328" y="352.48" width="16" height="16" fill="#006DF0"/>
			<polygon points="165.32,408.48 196.584,460.6 210.304,452.36 183.976,408.48 207.976,368.48 217.328,368.48 217.328,352.48      198.912,352.48    " fill="#006DF0"/>
			<path d="M470.744,102.448c-16.136-15.384-34.928-24.104-50.856-25.016c1.832-3.968,2.896-8.336,2.896-12.96     c0-6.856-2.288-13.176-6.104-18.384l1.712-3.272c6.672-12.712,18.168-22.2,32.376-26.72l-4.84-15.248     c-18.248,5.808-33.064,18.072-41.704,34.536l-0.208,0.392c-4.368-2.04-9.216-3.296-14.4-3.296c-5.184,0-10.032,1.256-14.4,3.304     l-0.208-0.392c-8.632-16.472-23.44-28.736-41.696-34.536l-4.84,15.248c14.208,4.52,25.704,14.008,32.368,26.72l1.72,3.272     c-3.824,5.208-6.104,11.536-6.104,18.384c0,4.976,1.28,9.624,3.384,13.824c-14.272,2.664-30.072,10.936-43.928,24.144     c-16.648,15.864-26.584,35.168-26.584,51.608c0,9.04,3.04,16.712,8.792,22.192c5.8,5.52,13.72,8.168,22.72,8.168     c6.808,0,14.24-1.6,21.816-4.528c6.968,31.424,25.392,52.592,46.96,52.592c22.264,0,41.176-22.768,47.592-55.584     c9.888,4.888,19.768,7.52,28.608,7.52c9,0,16.92-2.64,22.72-8.168c5.752-5.48,8.792-13.152,8.792-22.192     C497.328,137.616,487.392,118.312,470.744,102.448z M389.624,48.48c9.464,0,17.168,7.184,17.168,16s-7.704,16-17.168,16     s-17.168-7.184-17.168-16S380.16,48.48,389.624,48.48z M399.76,144.968c-4.2-0.288-8.408-0.384-12.648-0.312     c2.344-3.256,4.44-6.552,6.216-9.88C395.16,138.208,397.328,141.616,399.76,144.968z M309.16,164.672     c-2.544-2.424-3.832-6-3.832-10.616c0-11.976,8.288-27.312,21.632-40.032c21.224-20.232,45.608-25.176,54.216-16.968     c2.536,2.424,3.832,5.992,3.832,10.608c0,11.968-8.288,27.312-21.632,40.04C342.144,167.952,317.768,172.896,309.16,164.672z      M389.616,216.48c-9.504,0-18.632-8.336-25.016-21.48c15.736-3.184,34.248-3.208,49.992-0.016     C408.224,208.08,399.152,216.48,389.616,216.48z M420.144,179.856c-19.128-4.288-41.928-4.312-61.056-0.048     c-0.632-2.392-1.208-4.84-1.664-7.384c4.832-3.008,9.576-6.56,14.16-10.64c14.872-2.104,31.536-1.464,45.496,1.768     c1.792,1.52,3.608,2.944,5.448,4.304C421.944,172.016,421.152,176.04,420.144,179.856z M477.488,164.672     c-8.576,8.216-32.976,3.272-54.208-16.968c-13.344-12.728-21.632-28.072-21.632-40.04c0-4.616,1.288-8.184,3.832-10.608     c2.616-2.496,6.704-3.784,11.72-3.784c11.448,0,27.736,6.68,42.496,20.752c13.344,12.72,21.632,28.056,21.632,40.032     C481.328,158.672,480.04,162.248,477.488,164.672z" fill="#006DF0"/>
		</g>
	</g>
</g>
</svg>
